<svg width="20" height="20" viewBox="0 0 20 20" fill="none" xmlns="http://www.w3.org/2000/svg">
<path d="M9.99935 14.166C10.2355 14.166 10.4334 14.0862 10.5931 13.9264C10.7528 13.7667 10.8327 13.5688 10.8327 13.3327C10.8327 13.0966 10.7528 12.8987 10.5931 12.7389C10.4334 12.5792 10.2355 12.4994 9.99935 12.4994C9.76324 12.4994 9.56532 12.5792 9.4056 12.7389C9.24588 12.8987 9.16602 13.0966 9.16602 13.3327C9.16602 13.5688 9.24588 13.7667 9.4056 13.9264C9.56532 14.0862 9.76324 14.166 9.99935 14.166ZM9.99935 10.8327C10.2355 10.8327 10.4334 10.7528 10.5931 10.5931C10.7528 10.4334 10.8327 10.2355 10.8327 9.99935V6.66602C10.8327 6.4299 10.7528 6.23199 10.5931 6.07227C10.4334 5.91254 10.2355 5.83268 9.99935 5.83268C9.76324 5.83268 9.56532 5.91254 9.4056 6.07227C9.24588 6.23199 9.16602 6.4299 9.16602 6.66602V9.99935C9.16602 10.2355 9.24588 10.4334 9.4056 10.5931C9.56532 10.7528 9.76324 10.8327 9.99935 10.8327ZM9.99935 18.3327C8.84657 18.3327 7.76324 18.1139 6.74935 17.6764C5.73546 17.2389 4.85352 16.6452 4.10352 15.8952C3.35352 15.1452 2.75977 14.2632 2.32227 13.2494C1.88477 12.2355 1.66602 11.1521 1.66602 9.99935C1.66602 8.84657 1.88477 7.76324 2.32227 6.74935C2.75977 5.73546 3.35352 4.85352 4.10352 4.10352C4.85352 3.35352 5.73546 2.75977 6.74935 2.32227C7.76324 1.88477 8.84657 1.66602 9.99935 1.66602C11.1521 1.66602 12.2355 1.88477 13.2494 2.32227C14.2632 2.75977 15.1452 3.35352 15.8952 4.10352C16.6452 4.85352 17.2389 5.73546 17.6764 6.74935C18.1139 7.76324 18.3327 8.84657 18.3327 9.99935C18.3327 11.1521 18.1139 12.2355 17.6764 13.2494C17.2389 14.2632 16.6452 15.1452 15.8952 15.8952C15.1452 16.6452 14.2632 17.2389 13.2494 17.6764C12.2355 18.1139 11.1521 18.3327 9.99935 18.3327Z" fill="#D14343"/>
</svg>
