<svg width="20" height="20" viewBox="0 0 20 20" fill="none" xmlns="http://www.w3.org/2000/svg">
<path d="M9.75141 15.5981C9.01152 16.338 8.12012 16.708 7.0772 16.708C6.03429 16.7081 5.14293 16.3382 4.40313 15.5984C3.66333 14.8586 3.29336 13.9672 3.29321 12.924C3.29306 11.8809 3.66293 10.9894 4.40282 10.2495L6.18192 8.47042C6.30714 8.34521 6.45446 8.28262 6.6239 8.28267C6.79334 8.2827 6.9407 8.34536 7.06598 8.47063C7.19124 8.5959 7.25383 8.74319 7.25373 8.9125C7.25364 9.0818 7.19099 9.22906 7.06577 9.35428L5.286 11.1341C4.79162 11.6284 4.54444 12.225 4.54444 12.9238C4.54444 13.6226 4.79185 14.2194 5.28668 14.7143C5.7815 15.2091 6.37832 15.4565 7.07712 15.4565C7.77591 15.4565 8.3725 15.2093 8.86688 14.7149L10.6466 12.9352C10.7719 12.8099 10.9192 12.7474 11.0886 12.7474C11.2581 12.7474 11.4054 12.8101 11.5307 12.9353C11.656 13.0606 11.7186 13.2079 11.7185 13.3772C11.7184 13.5465 11.6557 13.6938 11.5305 13.819L9.75141 15.5981ZM8.67488 12.2099C8.54966 12.3351 8.40234 12.3977 8.23291 12.3977C8.06346 12.3976 7.9161 12.335 7.79084 12.2097C7.66556 12.0844 7.60297 11.9371 7.60307 11.7678C7.60316 11.5985 7.66581 11.4513 7.79103 11.326L11.3266 7.79051C11.4518 7.6653 11.5991 7.6027 11.7685 7.60273C11.938 7.60278 12.0853 7.66544 12.2106 7.7907C12.3359 7.91598 12.3985 8.06327 12.3984 8.23257C12.3983 8.40188 12.3356 8.54915 12.2104 8.67437L8.67488 12.2099ZM13.8195 11.53C13.6943 11.6552 13.547 11.7178 13.3775 11.7177C13.2081 11.7177 13.0607 11.6551 12.9355 11.5298C12.8102 11.4045 12.7476 11.2572 12.7477 11.0879C12.7478 10.9186 12.8105 10.7713 12.9357 10.6461L14.7154 8.86636C15.2098 8.37198 15.457 7.7754 15.457 7.0766C15.457 6.3778 15.2096 5.78099 14.7148 5.28616C14.2199 4.79133 13.6231 4.54392 12.9243 4.54392C12.2255 4.54392 11.6289 4.79111 11.1346 5.28548L9.35479 7.06526C9.22958 7.19047 9.08225 7.25306 8.91282 7.25302C8.74337 7.25298 8.59601 7.19033 8.47075 7.06506C8.34547 6.93979 8.28288 6.79249 8.28298 6.62318C8.28307 6.45388 8.34572 6.30662 8.47094 6.1814L10.25 4.40231C10.9899 3.66242 11.8813 3.29244 12.9242 3.29237C13.9672 3.2923 14.8585 3.66217 15.5983 4.40197C16.3381 5.14177 16.7081 6.03323 16.7082 7.07636C16.7084 8.11949 16.3385 9.011 15.5986 9.75089L13.8195 11.53Z" fill="#4CBFA4"/>
</svg>
