<svg width="44" height="44" viewBox="0 0 43 42" fill="none" xmlns="http://www.w3.org/2000/svg">
<circle cx="21.5" cy="21" r="21" fill="#F7F7FA"/>
<path d="M16.4999 29.3334C16.0416 29.3334 15.6492 29.1702 15.3228 28.8438C14.9964 28.5174 14.8333 28.125 14.8333 27.6667V19.3334C14.8333 18.875 14.9964 18.4827 15.3228 18.1563C15.6492 17.8299 16.0416 17.6667 16.4999 17.6667H17.3333V16C17.3333 14.8473 17.7395 13.8646 18.552 13.0521C19.3645 12.2396 20.3471 11.8334 21.4999 11.8334C22.6527 11.8334 23.6353 12.2396 24.4478 13.0521C25.2603 13.8646 25.6666 14.8473 25.6666 16V17.6667H26.4999C26.9583 17.6667 27.3506 17.8299 27.677 18.1563C28.0034 18.4827 28.1666 18.875 28.1666 19.3334V27.6667C28.1666 28.125 28.0034 28.5174 27.677 28.8438C27.3506 29.1702 26.9583 29.3334 26.4999 29.3334H16.4999ZM21.4999 25.1667C21.9583 25.1667 22.3506 25.0035 22.677 24.6771C23.0034 24.3507 23.1666 23.9584 23.1666 23.5C23.1666 23.0417 23.0034 22.6493 22.677 22.323C22.3506 21.9966 21.9583 21.8334 21.4999 21.8334C21.0416 21.8334 20.6492 21.9966 20.3228 22.323C19.9964 22.6493 19.8333 23.0417 19.8333 23.5C19.8333 23.9584 19.9964 24.3507 20.3228 24.6771C20.6492 25.0035 21.0416 25.1667 21.4999 25.1667ZM18.9999 17.6667H23.9999V16C23.9999 15.3056 23.7569 14.7153 23.2708 14.2292C22.7846 13.7431 22.1944 13.5 21.4999 13.5C20.8055 13.5 20.2152 13.7431 19.7291 14.2292C19.243 14.7153 18.9999 15.3056 18.9999 16V17.6667Z" fill="#8F95B2"/>
</svg>
