<svg width="18" height="18" viewBox="0 0 18 18" fill="none" xmlns="http://www.w3.org/2000/svg">
<path d="M8.99276 14.7829C8.83219 14.7829 8.67089 14.7541 8.50888 14.6964C8.34686 14.6387 8.20431 14.5483 8.08123 14.4253L7.00386 13.4459C5.67404 12.2334 4.48678 11.0423 3.44207 9.87262C2.39736 8.70291 1.875 7.44979 1.875 6.11326C1.875 5.04885 2.23389 4.15775 2.95168 3.43996C3.66947 2.72218 4.56057 2.36328 5.62498 2.36328C6.22978 2.36328 6.82714 2.50271 7.41705 2.78156C8.00695 3.06041 8.53459 3.51329 8.99998 4.14022C9.46537 3.51329 9.99301 3.06041 10.5829 2.78156C11.1728 2.50271 11.7702 2.36328 12.375 2.36328C13.4394 2.36328 14.3305 2.72218 15.0483 3.43996C15.7661 4.15775 16.125 5.04885 16.125 6.11326C16.125 7.46421 15.5937 8.73128 14.5312 9.91445C13.4687 11.0976 12.2841 12.2786 10.9774 13.4575L9.91151 14.4253C9.78844 14.5483 9.64469 14.6387 9.48026 14.6964C9.31584 14.7541 9.15334 14.7829 8.99276 14.7829ZM8.46056 5.27962C8.0548 4.66134 7.62764 4.20822 7.17908 3.92024C6.73051 3.63226 6.21248 3.48826 5.62498 3.48826C4.87498 3.48826 4.24998 3.73826 3.74998 4.23826C3.24998 4.73826 2.99998 5.36326 2.99998 6.11326C2.99998 6.71519 3.19397 7.34451 3.58194 8.00124C3.96992 8.65796 4.45693 9.31084 5.04298 9.95986C5.62904 10.6089 6.2639 11.243 6.94755 11.8623C7.6312 12.4815 8.26486 13.057 8.84852 13.5887C8.89179 13.6272 8.94228 13.6464 8.99998 13.6464C9.05768 13.6464 9.10817 13.6272 9.15144 13.5887C9.73511 13.057 10.3688 12.4815 11.0524 11.8623C11.7361 11.243 12.3709 10.6089 12.957 9.95986C13.543 9.31084 14.03 8.65796 14.418 8.00124C14.806 7.34451 15 6.71519 15 6.11326C15 5.36326 14.75 4.73826 14.25 4.23826C13.75 3.73826 13.125 3.48826 12.375 3.48826C11.7875 3.48826 11.2695 3.63226 10.8209 3.92024C10.3723 4.20822 9.94516 4.66134 9.5394 5.27962C9.47594 5.37577 9.39613 5.44789 9.29998 5.49598C9.20382 5.54405 9.10382 5.56809 8.99998 5.56809C8.89614 5.56809 8.79614 5.54405 8.69998 5.49598C8.60383 5.44789 8.52402 5.37577 8.46056 5.27962Z" fill="#8F95B2"/>
</svg>
