<svg width="current" height="current" viewBox="0 0 25 24" fill="none" xmlns="http://www.w3.org/2000/svg">
<path d="M5.29915 8.39922C5.29915 4.42277 8.5227 1.19922 12.4991 1.19922C16.4756 1.19922 19.6991 4.42277 19.6991 8.39922V10.5964C19.6991 12.2995 20.162 13.9707 21.0383 15.4312L21.7024 16.538C22.1429 17.2721 22.3631 17.6392 22.3782 17.9389C22.4016 18.4031 22.1547 18.8391 21.7446 19.0579C21.4798 19.1992 21.0518 19.1992 20.1957 19.1992H4.8027C3.94658 19.1992 3.51851 19.1992 3.25373 19.0579C2.84363 18.8391 2.59678 18.4032 2.62014 17.9389C2.63522 17.6392 2.85546 17.2721 3.29592 16.538L3.96002 15.4311C4.83628 13.9707 5.29915 12.2996 5.29915 10.5964V8.39922Z" fill="#C6CADA"/>
<path d="M15.32 20.4008C15.4194 20.4008 15.5009 20.4815 15.4916 20.5805C15.438 21.1513 15.1307 21.6903 14.6213 22.0978C14.0587 22.5479 13.2956 22.8008 12.5 22.8008C11.7044 22.8008 10.9413 22.5479 10.3787 22.0978C9.86927 21.6903 9.56198 21.1513 9.50842 20.5805C9.49913 20.4816 9.58059 20.4008 9.68 20.4008L12.5 20.4008L15.32 20.4008Z" fill="#474D66"/>
</svg>
