<svg width="24" height="24" viewBox="0 0 24 24" fill="none" xmlns="http://www.w3.org/2000/svg">
<path d="M12 14.6617C11.8795 14.6617 11.7673 14.6425 11.6635 14.604C11.5597 14.5656 11.4609 14.4996 11.3674 14.406L6.87313 9.91175C6.73466 9.7733 6.66383 9.59927 6.66063 9.38965C6.65741 9.18003 6.72824 9.00279 6.87313 8.85792C7.01799 8.71306 7.19363 8.64062 7.40003 8.64062C7.60643 8.64062 7.78206 8.71306 7.92693 8.85792L12 12.931L16.0731 8.85792C16.2116 8.71947 16.3856 8.64864 16.5952 8.64542C16.8048 8.64222 16.9821 8.71306 17.1269 8.85792C17.2718 9.00279 17.3443 9.17843 17.3443 9.38485C17.3443 9.59125 17.2718 9.76688 17.1269 9.91175L12.6327 14.406C12.5391 14.4996 12.4404 14.5656 12.3366 14.604C12.2327 14.6425 12.1205 14.6617 12 14.6617Z" fill="#C6CADA"/>
</svg>
