<svg width="current" height="current" viewBox="0 0 25 24" fill="none" xmlns="http://www.w3.org/2000/svg">
<circle cx="12.5" cy="12" r="12" fill="#F7F7FA"/>
<path d="M12.5 0C5.87188 0 0.5 5.37188 0.5 12C0.5 18.6281 5.87188 24 12.5 24C19.1281 24 24.5 18.6281 24.5 12C24.5 5.37188 19.1281 0 12.5 0ZM12.5 6C14.3642 6 15.875 7.51125 15.875 9.375C15.875 11.2387 14.3656 12.75 12.5 12.75C10.6363 12.75 9.125 11.2387 9.125 9.375C9.125 7.51125 10.6344 6 12.5 6ZM12.5 21C10.0189 21 7.77031 19.9908 6.13906 18.3614C6.89844 16.4016 8.77344 15 11 15H14C16.2284 15 18.1034 16.4006 18.8609 18.3614C17.2297 19.9922 14.9797 21 12.5 21Z" fill="#C6CADA"/>
</svg>
