<svg width="22" height="23" viewBox="0 0 22 23" fill="none" xmlns="http://www.w3.org/2000/svg">
<path d="M10.0834 17.0003C11.8556 17.0003 13.3681 16.3763 14.6209 15.1282C15.8737 13.8801 16.5001 12.3653 16.5001 10.5836C16.5001 8.81141 15.8737 7.29891 14.6209 6.04614C13.3681 4.79336 11.8556 4.16697 10.0834 4.16697C8.30177 4.16697 6.78692 4.79336 5.53883 6.04614C4.29076 7.29891 3.66673 8.81141 3.66673 10.5836C3.66673 12.3653 4.29076 13.8801 5.53883 15.1282C6.78692 16.3763 8.30177 17.0003 10.0834 17.0003ZM10.0834 18.3753C9.0022 18.3753 7.98917 18.1708 7.0443 17.7618C6.09943 17.3528 5.27561 16.797 4.57283 16.0942C3.87006 15.3914 3.3142 14.5676 2.90523 13.6227C2.49624 12.6779 2.29175 11.6648 2.29175 10.5836C2.29175 9.51184 2.49624 8.50351 2.90523 7.55866C3.3142 6.61379 3.87006 5.78761 4.57283 5.08013C5.27561 4.37266 6.09943 3.81444 7.0443 3.40547C7.98917 2.99649 9.0022 2.79199 10.0834 2.79199C11.1552 2.79199 12.1635 2.99649 13.1084 3.40547C14.0532 3.81444 14.8794 4.37266 15.5869 5.08013C16.2944 5.78761 16.8526 6.61379 17.2616 7.55866C17.6705 8.50351 17.875 9.51184 17.875 10.5836C17.875 11.5379 17.7131 12.4387 17.3894 13.286C17.0656 14.1334 16.6181 14.9014 16.047 15.59L19.2342 18.7772C19.3705 18.9135 19.4348 19.0716 19.4272 19.2514C19.4196 19.4312 19.3476 19.5893 19.2113 19.7256C19.0749 19.8525 18.9154 19.916 18.7327 19.916C18.5499 19.916 18.3904 19.8525 18.2541 19.7256L15.0757 16.5613C14.387 17.1325 13.619 17.5776 12.7717 17.8967C11.9244 18.2157 11.0283 18.3753 10.0834 18.3753Z" fill="#8F95B2"/>
</svg>
