<svg xmlns="http://www.w3.org/2000/svg" xmlns:xlink="http://www.w3.org/1999/xlink" width="214" zoomAndPan="magnify" viewBox="0 0 160.5 44.999999" height="60" preserveAspectRatio="xMidYMid meet" version="1.0"><defs><g/><clipPath id="a757a2acde"><path d="M 0 0.0703125 L 47.136719 0.0703125 L 47.136719 44.929688 L 0 44.929688 Z M 0 0.0703125 " clip-rule="nonzero"/></clipPath><clipPath id="1a410f5a52"><path d="M 8.972656 0.0703125 L 38.144531 0.0703125 C 43.097656 0.0703125 47.113281 4.085938 47.113281 9.042969 L 47.113281 35.957031 C 47.113281 40.914062 43.097656 44.929688 38.144531 44.929688 L 8.972656 44.929688 C 4.015625 44.929688 0 40.914062 0 35.957031 L 0 9.042969 C 0 4.085938 4.015625 0.0703125 8.972656 0.0703125 Z M 8.972656 0.0703125 " clip-rule="nonzero"/></clipPath><clipPath id="08e1bae98b"><path d="M 6 4.878906 L 41.078125 4.878906 L 41.078125 40.019531 L 6 40.019531 Z M 6 4.878906 " clip-rule="nonzero"/></clipPath><clipPath id="61543775be"><path d="M 5.9375 7.121094 L 5.9375 37.878906 C 5.9375 39.117188 6.941406 40.121094 8.179688 40.121094 L 38.9375 40.121094 C 40.175781 40.121094 41.179688 39.117188 41.179688 37.878906 L 41.179688 7.121094 C 41.179688 5.882812 40.175781 4.878906 38.9375 4.878906 L 8.179688 4.878906 C 6.941406 4.878906 5.9375 5.882812 5.9375 7.121094 Z M 5.9375 7.121094 " clip-rule="nonzero"/></clipPath></defs><g clip-path="url(#a757a2acde)"><g clip-path="url(#1a410f5a52)"><path fill="#eef9f6" d="M 0 0.0703125 L 47.136719 0.0703125 L 47.136719 44.929688 L 0 44.929688 Z M 0 0.0703125 " fill-opacity="1" fill-rule="nonzero"/></g></g><g clip-path="url(#08e1bae98b)"><g clip-path="url(#61543775be)"><path fill="#4cbfa4" d="M 39.277344 22.546875 C 39.855469 22.09375 40.308594 21.535156 40.636719 20.878906 C 40.96875 20.222656 41.144531 19.527344 41.164062 18.792969 C 41.195312 17.9375 41.007812 17.136719 40.601562 16.382812 C 40.191406 15.632812 39.625 15.035156 38.894531 14.59375 C 37.996094 14.074219 37.027344 13.78125 35.992188 13.714844 C 34.621094 13.714844 32.464844 14.3125 27.542969 19.054688 L 27.183594 19.40625 C 26.96875 19.320312 26.816406 19.171875 26.726562 18.957031 C 26.84375 18.832031 26.964844 18.710938 27.085938 18.582031 C 32.566406 12.761719 32.421875 10.453125 32.375 9.691406 C 32.320312 8.8125 32.058594 8 31.59375 7.25 C 31.15625 6.515625 30.5625 5.941406 29.808594 5.53125 C 29.058594 5.125 28.257812 4.933594 27.402344 4.964844 C 26.660156 4.980469 25.957031 5.15625 25.289062 5.484375 C 24.625 5.816406 24.0625 6.273438 23.605469 6.855469 C 23.148438 6.28125 22.59375 5.828125 21.9375 5.496094 C 21.28125 5.167969 20.585938 4.992188 19.851562 4.972656 L 19.746094 4.972656 C 18.910156 4.960938 18.128906 5.15625 17.394531 5.5625 C 16.664062 5.96875 16.082031 6.527344 15.652344 7.242188 C 15.128906 8.140625 14.835938 9.105469 14.773438 10.140625 C 14.753906 11.558594 15.371094 13.667969 20.113281 18.589844 L 20.464844 18.949219 C 20.378906 19.167969 20.230469 19.320312 20.011719 19.410156 C 19.890625 19.289062 19.765625 19.171875 19.636719 19.050781 C 13.816406 13.566406 11.507812 13.714844 10.75 13.761719 C 9.871094 13.820312 9.054688 14.082031 8.308594 14.546875 C 7.574219 14.984375 7 15.578125 6.589844 16.328125 C 6.183594 17.078125 5.992188 17.878906 6.023438 18.734375 C 6.039062 19.476562 6.210938 20.179688 6.542969 20.84375 C 6.875 21.507812 7.332031 22.070312 7.914062 22.53125 C 7.335938 22.984375 6.882812 23.542969 6.554688 24.199219 C 6.222656 24.855469 6.050781 25.550781 6.027344 26.285156 C 6 27.140625 6.1875 27.941406 6.59375 28.695312 C 7 29.445312 7.566406 30.042969 8.300781 30.484375 C 9.195312 31.003906 10.164062 31.296875 11.199219 31.359375 L 11.261719 31.359375 C 12.675781 31.359375 14.800781 30.6875 19.648438 26.019531 L 20.007812 25.667969 C 20.226562 25.75 20.378906 25.902344 20.464844 26.117188 C 20.347656 26.242188 20.230469 26.363281 20.109375 26.492188 C 14.625 32.3125 14.769531 34.621094 14.820312 35.378906 C 14.875 36.261719 15.136719 37.074219 15.605469 37.824219 C 16.035156 38.546875 16.613281 39.113281 17.347656 39.523438 C 18.082031 39.929688 18.867188 40.128906 19.707031 40.113281 L 19.796875 40.113281 C 20.539062 40.097656 21.242188 39.921875 21.90625 39.59375 C 22.570312 39.261719 23.132812 38.804688 23.59375 38.222656 C 24.046875 38.796875 24.601562 39.253906 25.257812 39.582031 C 25.917969 39.910156 26.613281 40.085938 27.347656 40.105469 C 28.199219 40.136719 29.003906 39.945312 29.753906 39.539062 C 30.503906 39.132812 31.101562 38.566406 31.546875 37.835938 C 32.066406 36.9375 32.355469 35.972656 32.421875 34.9375 C 32.441406 33.519531 31.820312 31.410156 27.078125 26.488281 L 26.726562 26.128906 C 26.8125 25.910156 26.964844 25.757812 27.179688 25.671875 C 27.300781 25.789062 27.425781 25.90625 27.554688 26.027344 C 33.375 31.511719 35.6875 31.363281 36.441406 31.316406 C 37.324219 31.257812 38.136719 30.996094 38.886719 30.527344 C 39.621094 30.089844 40.191406 29.496094 40.601562 28.746094 C 41.007812 28 41.199219 27.195312 41.167969 26.34375 C 41.152344 25.601562 40.980469 24.898438 40.648438 24.234375 C 40.320312 23.570312 39.859375 23.007812 39.277344 22.546875 Z M 39.277344 22.546875 " fill-opacity="1" fill-rule="nonzero"/></g></g><g fill="#c6cada" fill-opacity="1"><g transform="translate(52.843052, 30.812396)"><g><path d="M 14.46875 0 L 13.3125 -5.25 L 11.765625 -11.875 L 11.671875 -11.875 L 8.9375 0 L 4.53125 0 L 0.265625 -15 L 4.34375 -15 L 6.078125 -8.359375 C 6.347656 -7.171875 6.628906 -5.53125 6.921875 -3.4375 L 7 -3.4375 C 7.039062 -4.113281 7.195312 -5.191406 7.46875 -6.671875 L 7.6875 -7.8125 L 9.53125 -15 L 14.046875 -15 L 15.796875 -7.8125 C 15.835938 -7.613281 15.894531 -7.320312 15.96875 -6.9375 C 16.039062 -6.550781 16.113281 -6.140625 16.1875 -5.703125 C 16.257812 -5.273438 16.320312 -4.851562 16.375 -4.4375 C 16.4375 -4.019531 16.472656 -3.6875 16.484375 -3.4375 L 16.5625 -3.4375 C 16.644531 -4.082031 16.785156 -4.960938 16.984375 -6.078125 C 17.191406 -7.203125 17.34375 -7.960938 17.4375 -8.359375 L 19.234375 -15 L 23.25 -15 L 18.921875 0 Z M 14.46875 0 "/></g></g></g><g fill="#c6cada" fill-opacity="1"><g transform="translate(74.154387, 30.812396)"><g><path d="M 1.96875 -18.875 C 1.96875 -20.207031 2.710938 -20.875 4.203125 -20.875 C 5.679688 -20.875 6.421875 -20.207031 6.421875 -18.875 C 6.421875 -18.238281 6.234375 -17.742188 5.859375 -17.390625 C 5.492188 -17.035156 4.941406 -16.859375 4.203125 -16.859375 C 2.710938 -16.859375 1.96875 -17.53125 1.96875 -18.875 Z M 6.234375 0 L 2.140625 0 L 2.140625 -15 L 6.234375 -15 Z M 6.234375 0 "/></g></g></g><g fill="#c6cada" fill-opacity="1"><g transform="translate(80.338081, 30.812396)"><g><path d="M 6.078125 -8.15625 L 7.859375 -10.4375 L 12.0625 -15 L 16.671875 -15 L 10.71875 -8.484375 L 17.03125 0 L 12.3125 0 L 8 -6.078125 L 6.234375 -4.671875 L 6.234375 0 L 2.140625 0 L 2.140625 -20.875 L 6.234375 -20.875 L 6.234375 -11.5625 L 6.015625 -8.15625 Z M 6.078125 -8.15625 "/></g></g></g><g fill="#c6cada" fill-opacity="1"><g transform="translate(95.171881, 30.812396)"><g><path d="M 1.96875 -18.875 C 1.96875 -20.207031 2.710938 -20.875 4.203125 -20.875 C 5.679688 -20.875 6.421875 -20.207031 6.421875 -18.875 C 6.421875 -18.238281 6.234375 -17.742188 5.859375 -17.390625 C 5.492188 -17.035156 4.941406 -16.859375 4.203125 -16.859375 C 2.710938 -16.859375 1.96875 -17.53125 1.96875 -18.875 Z M 6.234375 0 L 2.140625 0 L 2.140625 -15 L 6.234375 -15 Z M 6.234375 0 "/></g></g></g><g fill="#c6cada" fill-opacity="1"><g transform="translate(101.355577, 30.812396)"><g/></g></g><g fill="#c6cada" fill-opacity="1"><g transform="translate(106.292041, 30.812396)"><g><path d="M 5.71875 0 L 0 -15 L 4.28125 -15 L 7.171875 -6.453125 C 7.492188 -5.367188 7.695312 -4.34375 7.78125 -3.375 L 7.859375 -3.375 C 7.898438 -4.238281 8.101562 -5.265625 8.46875 -6.453125 L 11.34375 -15 L 15.625 -15 L 9.90625 0 Z M 5.71875 0 "/></g></g></g><g fill="#c6cada" fill-opacity="1"><g transform="translate(119.717692, 30.812396)"><g><path d="M 1.96875 -18.875 C 1.96875 -20.207031 2.710938 -20.875 4.203125 -20.875 C 5.679688 -20.875 6.421875 -20.207031 6.421875 -18.875 C 6.421875 -18.238281 6.234375 -17.742188 5.859375 -17.390625 C 5.492188 -17.035156 4.941406 -16.859375 4.203125 -16.859375 C 2.710938 -16.859375 1.96875 -17.53125 1.96875 -18.875 Z M 6.234375 0 L 2.140625 0 L 2.140625 -15 L 6.234375 -15 Z M 6.234375 0 "/></g></g></g><g fill="#c6cada" fill-opacity="1"><g transform="translate(125.901387, 30.812396)"><g><path d="M 6.078125 -8.15625 L 7.859375 -10.4375 L 12.0625 -15 L 16.671875 -15 L 10.71875 -8.484375 L 17.03125 0 L 12.3125 0 L 8 -6.078125 L 6.234375 -4.671875 L 6.234375 0 L 2.140625 0 L 2.140625 -20.875 L 6.234375 -20.875 L 6.234375 -11.5625 L 6.015625 -8.15625 Z M 6.078125 -8.15625 "/></g></g></g><g fill="#c6cada" fill-opacity="1"><g transform="translate(140.73519, 30.812396)"><g><path d="M 1.96875 -18.875 C 1.96875 -20.207031 2.710938 -20.875 4.203125 -20.875 C 5.679688 -20.875 6.421875 -20.207031 6.421875 -18.875 C 6.421875 -18.238281 6.234375 -17.742188 5.859375 -17.390625 C 5.492188 -17.035156 4.941406 -16.859375 4.203125 -16.859375 C 2.710938 -16.859375 1.96875 -17.53125 1.96875 -18.875 Z M 6.234375 0 L 2.140625 0 L 2.140625 -15 L 6.234375 -15 Z M 6.234375 0 "/></g></g></g></svg>